# xmcd CD database file
#
# Track frame offsets:
#	150
#	24926
#	56346
#	99673
#	127256
#	157874
#	186171
#	208778
#
# Disc length: 3098 seconds
#
# Revision: 0
# Processed by: cddbd v1.5.2PL0 Copyright (c) Steve Scherf et al.
# Submitted via: CDex 1.70beta2
#
DISCID=660c1808
DTITLE=Norma Winstone with The NDR BigBand - It's Later Than You Think
DYEAR=2004
DGENRE=Jazz
TTITLE0=Smoke Gets In Your Eyes
TTITLE1=Big Yellow Taxi
TTITLE2=15 Petals
TTITLE3=Sisters of Mercy
TTITLE4=Watching John
TTITLE5=Liberty City
TTITLE6=Feels Like Home
TTITLE7=Take The Floor
EXTD=YEAR: 2004
EXTT0=
EXTT1=
EXTT2=
EXTT3=
EXTT4=
EXTT5=
EXTT6=
EXTT7=
PLAYORDER=
